<mxfile host="Electron" agent="Mozilla/5.0 (Windows NT 10.0; Win64; x64) AppleWebKit/537.36 (KHTML, like Gecko) draw.io/26.0.4 Chrome/128.0.6613.186 Electron/32.2.5 Safari/537.36" version="26.0.4">
  <diagram name="Page-1" id="c4acf3e9-155e-7222-9cf6-157b1a14988f">
    <mxGraphModel dx="1434" dy="964" grid="1" gridSize="10" guides="1" tooltips="1" connect="1" arrows="1" fold="1" page="1" pageScale="1" pageWidth="827" pageHeight="1169" background="none" math="0" shadow="0">
      <root>
        <mxCell id="0" />
        <mxCell id="1" parent="0" />
        <mxCell id="TLi2QSpyV93iAIoi0gY_-1" value="Game" style="swimlane;fontStyle=1;align=center;verticalAlign=top;childLayout=stackLayout;horizontal=1;startSize=26;horizontalStack=0;resizeParent=1;resizeParentMax=0;resizeLast=0;collapsible=1;marginBottom=0;whiteSpace=wrap;html=1;" parent="1" vertex="1">
          <mxGeometry x="120" y="160" width="160" height="148" as="geometry">
            <mxRectangle x="300" y="450" width="100" height="30" as="alternateBounds" />
          </mxGeometry>
        </mxCell>
        <mxCell id="TLi2QSpyV93iAIoi0gY_-2" value="+ InProgress : char&lt;div&gt;+ PlayerTurn : string&lt;/div&gt;&lt;div&gt;&lt;br&gt;&lt;/div&gt;" style="text;strokeColor=none;fillColor=none;align=left;verticalAlign=top;spacingLeft=4;spacingRight=4;overflow=hidden;rotatable=0;points=[[0,0.5],[1,0.5]];portConstraint=eastwest;whiteSpace=wrap;html=1;" parent="TLi2QSpyV93iAIoi0gY_-1" vertex="1">
          <mxGeometry y="26" width="160" height="44" as="geometry" />
        </mxCell>
        <mxCell id="TLi2QSpyV93iAIoi0gY_-3" value="" style="line;strokeWidth=1;fillColor=none;align=left;verticalAlign=middle;spacingTop=-1;spacingLeft=3;spacingRight=3;rotatable=0;labelPosition=right;points=[];portConstraint=eastwest;strokeColor=inherit;" parent="TLi2QSpyV93iAIoi0gY_-1" vertex="1">
          <mxGeometry y="70" width="160" height="8" as="geometry" />
        </mxCell>
        <mxCell id="TLi2QSpyV93iAIoi0gY_-4" value="+GameStatus(): char&lt;div&gt;+StartGame() : null&lt;/div&gt;&lt;div&gt;+EndGame() : null&lt;/div&gt;&lt;div&gt;&lt;br&gt;&lt;/div&gt;" style="text;strokeColor=none;fillColor=none;align=left;verticalAlign=top;spacingLeft=4;spacingRight=4;overflow=hidden;rotatable=0;points=[[0,0.5],[1,0.5]];portConstraint=eastwest;whiteSpace=wrap;html=1;" parent="TLi2QSpyV93iAIoi0gY_-1" vertex="1">
          <mxGeometry y="78" width="160" height="70" as="geometry" />
        </mxCell>
        <mxCell id="TLi2QSpyV93iAIoi0gY_-6" value="Player" style="swimlane;fontStyle=1;align=center;verticalAlign=top;childLayout=stackLayout;horizontal=1;startSize=26;horizontalStack=0;resizeParent=1;resizeParentMax=0;resizeLast=0;collapsible=1;marginBottom=0;whiteSpace=wrap;html=1;" parent="1" vertex="1">
          <mxGeometry x="599" y="137" width="160" height="190" as="geometry" />
        </mxCell>
        <mxCell id="TLi2QSpyV93iAIoi0gY_-7" value="&lt;div&gt;+ type : string&lt;/div&gt;+ name: string&lt;div&gt;+ score : int&lt;/div&gt;" style="text;strokeColor=none;fillColor=none;align=left;verticalAlign=top;spacingLeft=4;spacingRight=4;overflow=hidden;rotatable=0;points=[[0,0.5],[1,0.5]];portConstraint=eastwest;whiteSpace=wrap;html=1;" parent="TLi2QSpyV93iAIoi0gY_-6" vertex="1">
          <mxGeometry y="26" width="160" height="64" as="geometry" />
        </mxCell>
        <mxCell id="TLi2QSpyV93iAIoi0gY_-8" value="" style="line;strokeWidth=1;fillColor=none;align=left;verticalAlign=middle;spacingTop=-1;spacingLeft=3;spacingRight=3;rotatable=0;labelPosition=right;points=[];portConstraint=eastwest;strokeColor=inherit;" parent="TLi2QSpyV93iAIoi0gY_-6" vertex="1">
          <mxGeometry y="90" width="160" height="8" as="geometry" />
        </mxCell>
        <mxCell id="TLi2QSpyV93iAIoi0gY_-9" value="+ getScore(string) : int&lt;div&gt;+ setScore(string, int) : null&lt;/div&gt;&lt;div&gt;&lt;br&gt;&lt;/div&gt;" style="text;strokeColor=none;fillColor=none;align=left;verticalAlign=top;spacingLeft=4;spacingRight=4;overflow=hidden;rotatable=0;points=[[0,0.5],[1,0.5]];portConstraint=eastwest;whiteSpace=wrap;html=1;" parent="TLi2QSpyV93iAIoi0gY_-6" vertex="1">
          <mxGeometry y="98" width="160" height="92" as="geometry" />
        </mxCell>
        <mxCell id="TLi2QSpyV93iAIoi0gY_-11" value="Extreme Noughts and crosses - Class Diagram V1" style="rounded=0;whiteSpace=wrap;html=1;" parent="1" vertex="1">
          <mxGeometry x="215" y="30" width="420" height="60" as="geometry" />
        </mxCell>
        <mxCell id="TLi2QSpyV93iAIoi0gY_-12" value="Board" style="swimlane;fontStyle=1;align=center;verticalAlign=top;childLayout=stackLayout;horizontal=1;startSize=26;horizontalStack=0;resizeParent=1;resizeParentMax=0;resizeLast=0;collapsible=1;marginBottom=0;whiteSpace=wrap;html=1;" parent="1" vertex="1">
          <mxGeometry x="120" y="401" width="160" height="86" as="geometry" />
        </mxCell>
        <mxCell id="TLi2QSpyV93iAIoi0gY_-13" value="+ field: type" style="text;strokeColor=none;fillColor=none;align=left;verticalAlign=top;spacingLeft=4;spacingRight=4;overflow=hidden;rotatable=0;points=[[0,0.5],[1,0.5]];portConstraint=eastwest;whiteSpace=wrap;html=1;" parent="TLi2QSpyV93iAIoi0gY_-12" vertex="1">
          <mxGeometry y="26" width="160" height="26" as="geometry" />
        </mxCell>
        <mxCell id="TLi2QSpyV93iAIoi0gY_-14" value="" style="line;strokeWidth=1;fillColor=none;align=left;verticalAlign=middle;spacingTop=-1;spacingLeft=3;spacingRight=3;rotatable=0;labelPosition=right;points=[];portConstraint=eastwest;strokeColor=inherit;" parent="TLi2QSpyV93iAIoi0gY_-12" vertex="1">
          <mxGeometry y="52" width="160" height="8" as="geometry" />
        </mxCell>
        <mxCell id="TLi2QSpyV93iAIoi0gY_-15" value="+ method(type): type" style="text;strokeColor=none;fillColor=none;align=left;verticalAlign=top;spacingLeft=4;spacingRight=4;overflow=hidden;rotatable=0;points=[[0,0.5],[1,0.5]];portConstraint=eastwest;whiteSpace=wrap;html=1;" parent="TLi2QSpyV93iAIoi0gY_-12" vertex="1">
          <mxGeometry y="60" width="160" height="26" as="geometry" />
        </mxCell>
        <mxCell id="TLi2QSpyV93iAIoi0gY_-17" value="" style="endArrow=none;html=1;rounded=0;" parent="1" source="TLi2QSpyV93iAIoi0gY_-12" target="TLi2QSpyV93iAIoi0gY_-1" edge="1">
          <mxGeometry width="50" height="50" relative="1" as="geometry">
            <mxPoint x="170" y="350" as="sourcePoint" />
            <mxPoint x="220" y="300" as="targetPoint" />
          </mxGeometry>
        </mxCell>
        <mxCell id="TLi2QSpyV93iAIoi0gY_-18" value="Uses" style="edgeLabel;html=1;align=center;verticalAlign=middle;resizable=0;points=[];" parent="TLi2QSpyV93iAIoi0gY_-17" vertex="1" connectable="0">
          <mxGeometry x="0.025" y="1" relative="1" as="geometry">
            <mxPoint as="offset" />
          </mxGeometry>
        </mxCell>
        <mxCell id="TLi2QSpyV93iAIoi0gY_-19" value="1" style="edgeLabel;html=1;align=center;verticalAlign=middle;resizable=0;points=[];" parent="TLi2QSpyV93iAIoi0gY_-17" vertex="1" connectable="0">
          <mxGeometry x="0.625" relative="1" as="geometry">
            <mxPoint x="-1" y="4" as="offset" />
          </mxGeometry>
        </mxCell>
        <mxCell id="TLi2QSpyV93iAIoi0gY_-20" value="1" style="edgeLabel;html=1;align=center;verticalAlign=middle;resizable=0;points=[];" parent="TLi2QSpyV93iAIoi0gY_-17" vertex="1" connectable="0">
          <mxGeometry x="-0.7" y="-2" relative="1" as="geometry">
            <mxPoint x="-4" as="offset" />
          </mxGeometry>
        </mxCell>
        <mxCell id="TLi2QSpyV93iAIoi0gY_-21" value="" style="endArrow=none;html=1;rounded=0;entryX=0.006;entryY=1.031;entryDx=0;entryDy=0;entryPerimeter=0;" parent="1" edge="1" target="TLi2QSpyV93iAIoi0gY_-7">
          <mxGeometry width="50" height="50" relative="1" as="geometry">
            <mxPoint x="280" y="226" as="sourcePoint" />
            <mxPoint x="470" y="226" as="targetPoint" />
          </mxGeometry>
        </mxCell>
        <mxCell id="TLi2QSpyV93iAIoi0gY_-22" value="Is Played By" style="edgeLabel;html=1;align=center;verticalAlign=middle;resizable=0;points=[];" parent="TLi2QSpyV93iAIoi0gY_-21" vertex="1" connectable="0">
          <mxGeometry x="-0.1263" relative="1" as="geometry">
            <mxPoint as="offset" />
          </mxGeometry>
        </mxCell>
        <mxCell id="TLi2QSpyV93iAIoi0gY_-23" value="1" style="edgeLabel;html=1;align=center;verticalAlign=middle;resizable=0;points=[];" parent="TLi2QSpyV93iAIoi0gY_-21" vertex="1" connectable="0">
          <mxGeometry x="-0.8526" relative="1" as="geometry">
            <mxPoint as="offset" />
          </mxGeometry>
        </mxCell>
        <mxCell id="TLi2QSpyV93iAIoi0gY_-24" value="2" style="edgeLabel;html=1;align=center;verticalAlign=middle;resizable=0;points=[];" parent="TLi2QSpyV93iAIoi0gY_-21" vertex="1" connectable="0">
          <mxGeometry x="0.8692" y="1" relative="1" as="geometry">
            <mxPoint as="offset" />
          </mxGeometry>
        </mxCell>
        <mxCell id="TLi2QSpyV93iAIoi0gY_-25" value="CheckWin" style="swimlane;fontStyle=1;align=center;verticalAlign=top;childLayout=stackLayout;horizontal=1;startSize=26;horizontalStack=0;resizeParent=1;resizeParentMax=0;resizeLast=0;collapsible=1;marginBottom=0;whiteSpace=wrap;html=1;" parent="1" vertex="1">
          <mxGeometry x="347" y="396" width="160" height="140" as="geometry" />
        </mxCell>
        <mxCell id="TLi2QSpyV93iAIoi0gY_-26" value="+ Winner : String" style="text;strokeColor=none;fillColor=none;align=left;verticalAlign=top;spacingLeft=4;spacingRight=4;overflow=hidden;rotatable=0;points=[[0,0.5],[1,0.5]];portConstraint=eastwest;whiteSpace=wrap;html=1;" parent="TLi2QSpyV93iAIoi0gY_-25" vertex="1">
          <mxGeometry y="26" width="160" height="26" as="geometry" />
        </mxCell>
        <mxCell id="TLi2QSpyV93iAIoi0gY_-27" value="" style="line;strokeWidth=1;fillColor=none;align=left;verticalAlign=middle;spacingTop=-1;spacingLeft=3;spacingRight=3;rotatable=0;labelPosition=right;points=[];portConstraint=eastwest;strokeColor=inherit;" parent="TLi2QSpyV93iAIoi0gY_-25" vertex="1">
          <mxGeometry y="52" width="160" height="8" as="geometry" />
        </mxCell>
        <mxCell id="TLi2QSpyV93iAIoi0gY_-28" value="+ checkSmallWin(int): null&lt;div&gt;+ checkBigWin() : char&lt;/div&gt;" style="text;strokeColor=none;fillColor=none;align=left;verticalAlign=top;spacingLeft=4;spacingRight=4;overflow=hidden;rotatable=0;points=[[0,0.5],[1,0.5]];portConstraint=eastwest;whiteSpace=wrap;html=1;" parent="TLi2QSpyV93iAIoi0gY_-25" vertex="1">
          <mxGeometry y="60" width="160" height="80" as="geometry" />
        </mxCell>
        <mxCell id="TLi2QSpyV93iAIoi0gY_-29" value="" style="endArrow=none;html=1;rounded=0;entryX=0.5;entryY=0;entryDx=0;entryDy=0;" parent="1" source="TLi2QSpyV93iAIoi0gY_-1" target="TLi2QSpyV93iAIoi0gY_-25" edge="1">
          <mxGeometry width="50" height="50" relative="1" as="geometry">
            <mxPoint x="330" y="350" as="sourcePoint" />
            <mxPoint x="380" y="300" as="targetPoint" />
          </mxGeometry>
        </mxCell>
        <mxCell id="TLi2QSpyV93iAIoi0gY_-30" value="" style="ellipse;html=1;shape=startState;fillColor=#000000;strokeColor=#ff0000;" parent="1" vertex="1">
          <mxGeometry x="20" y="218" width="30" height="30" as="geometry" />
        </mxCell>
        <mxCell id="TLi2QSpyV93iAIoi0gY_-32" value="" style="ellipse;html=1;shape=endState;fillColor=#000000;strokeColor=#ff0000;" parent="1" vertex="1">
          <mxGeometry x="20" y="278" width="30" height="30" as="geometry" />
        </mxCell>
        <mxCell id="TLi2QSpyV93iAIoi0gY_-35" value="" style="endArrow=classic;html=1;rounded=0;" parent="1" source="TLi2QSpyV93iAIoi0gY_-1" target="TLi2QSpyV93iAIoi0gY_-32" edge="1">
          <mxGeometry width="50" height="50" relative="1" as="geometry">
            <mxPoint x="30" y="340" as="sourcePoint" />
            <mxPoint x="80" y="290" as="targetPoint" />
          </mxGeometry>
        </mxCell>
        <mxCell id="TLi2QSpyV93iAIoi0gY_-39" value="End" style="edgeLabel;html=1;align=center;verticalAlign=middle;resizable=0;points=[];" parent="TLi2QSpyV93iAIoi0gY_-35" vertex="1" connectable="0">
          <mxGeometry x="-0.3962" relative="1" as="geometry">
            <mxPoint as="offset" />
          </mxGeometry>
        </mxCell>
        <mxCell id="TLi2QSpyV93iAIoi0gY_-37" value="" style="endArrow=classic;html=1;rounded=0;" parent="1" source="TLi2QSpyV93iAIoi0gY_-30" target="TLi2QSpyV93iAIoi0gY_-1" edge="1">
          <mxGeometry width="50" height="50" relative="1" as="geometry">
            <mxPoint x="50" y="260" as="sourcePoint" />
            <mxPoint x="100" y="210" as="targetPoint" />
          </mxGeometry>
        </mxCell>
        <mxCell id="TLi2QSpyV93iAIoi0gY_-38" value="Start" style="edgeLabel;html=1;align=center;verticalAlign=middle;resizable=0;points=[];" parent="TLi2QSpyV93iAIoi0gY_-37" vertex="1" connectable="0">
          <mxGeometry x="-0.6693" relative="1" as="geometry">
            <mxPoint as="offset" />
          </mxGeometry>
        </mxCell>
        <mxCell id="TLi2QSpyV93iAIoi0gY_-40" value="Scores" style="swimlane;fontStyle=1;align=center;verticalAlign=top;childLayout=stackLayout;horizontal=1;startSize=26;horizontalStack=0;resizeParent=1;resizeParentMax=0;resizeLast=0;collapsible=1;marginBottom=0;whiteSpace=wrap;html=1;" parent="1" vertex="1">
          <mxGeometry x="602" y="393" width="180" height="170" as="geometry" />
        </mxCell>
        <mxCell id="TLi2QSpyV93iAIoi0gY_-41" value="+ playerno : int&lt;div&gt;+ name :&amp;nbsp; &amp;nbsp; &amp;nbsp;string&lt;/div&gt;&lt;div&gt;+ score :&amp;nbsp; &amp;nbsp; &amp;nbsp; int&lt;/div&gt;" style="text;strokeColor=none;fillColor=none;align=left;verticalAlign=top;spacingLeft=4;spacingRight=4;overflow=hidden;rotatable=0;points=[[0,0.5],[1,0.5]];portConstraint=eastwest;whiteSpace=wrap;html=1;" parent="TLi2QSpyV93iAIoi0gY_-40" vertex="1">
          <mxGeometry y="26" width="180" height="54" as="geometry" />
        </mxCell>
        <mxCell id="TLi2QSpyV93iAIoi0gY_-42" value="" style="line;strokeWidth=1;fillColor=none;align=left;verticalAlign=middle;spacingTop=-1;spacingLeft=3;spacingRight=3;rotatable=0;labelPosition=right;points=[];portConstraint=eastwest;strokeColor=inherit;" parent="TLi2QSpyV93iAIoi0gY_-40" vertex="1">
          <mxGeometry y="80" width="180" height="8" as="geometry" />
        </mxCell>
        <mxCell id="TLi2QSpyV93iAIoi0gY_-43" value="+ saveScore(string, score) : null&lt;div&gt;+displayScores(): null&lt;/div&gt;&lt;div&gt;+resetScores() : null&lt;/div&gt;&lt;div&gt;&lt;br&gt;&lt;/div&gt;" style="text;strokeColor=none;fillColor=none;align=left;verticalAlign=top;spacingLeft=4;spacingRight=4;overflow=hidden;rotatable=0;points=[[0,0.5],[1,0.5]];portConstraint=eastwest;whiteSpace=wrap;html=1;" parent="TLi2QSpyV93iAIoi0gY_-40" vertex="1">
          <mxGeometry y="88" width="180" height="82" as="geometry" />
        </mxCell>
        <mxCell id="TLi2QSpyV93iAIoi0gY_-45" value="" style="endArrow=classic;html=1;rounded=0;" parent="1" source="TLi2QSpyV93iAIoi0gY_-1" target="TLi2QSpyV93iAIoi0gY_-40" edge="1">
          <mxGeometry width="50" height="50" relative="1" as="geometry">
            <mxPoint x="400" y="350" as="sourcePoint" />
            <mxPoint x="450" y="300" as="targetPoint" />
          </mxGeometry>
        </mxCell>
        <mxCell id="TLi2QSpyV93iAIoi0gY_-46" value="&lt;div&gt;Nonagon&lt;/div&gt;" style="swimlane;fontStyle=1;align=center;verticalAlign=top;childLayout=stackLayout;horizontal=1;startSize=26;horizontalStack=0;resizeParent=1;resizeParentMax=0;resizeLast=0;collapsible=1;marginBottom=0;whiteSpace=wrap;html=1;" parent="1" vertex="1">
          <mxGeometry x="87" y="591" width="218" height="190" as="geometry" />
        </mxCell>
        <mxCell id="TLi2QSpyV93iAIoi0gY_-47" value="+nonagon : int&lt;div&gt;+nonstate : char&lt;br&gt;&lt;div&gt;+row : int&lt;/div&gt;&lt;div&gt;+column : int&lt;/div&gt;&lt;div&gt;&lt;br&gt;&lt;/div&gt;&lt;div&gt;&lt;br&gt;&lt;/div&gt;&lt;/div&gt;" style="text;strokeColor=none;fillColor=none;align=left;verticalAlign=top;spacingLeft=4;spacingRight=4;overflow=hidden;rotatable=0;points=[[0,0.5],[1,0.5]];portConstraint=eastwest;whiteSpace=wrap;html=1;" parent="TLi2QSpyV93iAIoi0gY_-46" vertex="1">
          <mxGeometry y="26" width="218" height="94" as="geometry" />
        </mxCell>
        <mxCell id="TLi2QSpyV93iAIoi0gY_-48" value="" style="line;strokeWidth=1;fillColor=none;align=left;verticalAlign=middle;spacingTop=-1;spacingLeft=3;spacingRight=3;rotatable=0;labelPosition=right;points=[];portConstraint=eastwest;strokeColor=inherit;" parent="TLi2QSpyV93iAIoi0gY_-46" vertex="1">
          <mxGeometry y="120" width="218" height="8" as="geometry" />
        </mxCell>
        <mxCell id="TLi2QSpyV93iAIoi0gY_-49" value="+ getNonagonState(int):null&lt;div&gt;+ setNonagonState(int, state):null&lt;/div&gt;&lt;div&gt;&lt;br&gt;&lt;/div&gt;&lt;div&gt;&lt;br&gt;&lt;/div&gt;" style="text;strokeColor=none;fillColor=none;align=left;verticalAlign=top;spacingLeft=4;spacingRight=4;overflow=hidden;rotatable=0;points=[[0,0.5],[1,0.5]];portConstraint=eastwest;whiteSpace=wrap;html=1;" parent="TLi2QSpyV93iAIoi0gY_-46" vertex="1">
          <mxGeometry y="128" width="218" height="62" as="geometry" />
        </mxCell>
        <mxCell id="TLi2QSpyV93iAIoi0gY_-50" value="&lt;div&gt;Cell&lt;/div&gt;" style="swimlane;fontStyle=1;align=center;verticalAlign=top;childLayout=stackLayout;horizontal=1;startSize=26;horizontalStack=0;resizeParent=1;resizeParentMax=0;resizeLast=0;collapsible=1;marginBottom=0;whiteSpace=wrap;html=1;" parent="1" vertex="1">
          <mxGeometry x="370" y="601" width="160" height="154" as="geometry" />
        </mxCell>
        <mxCell id="TLi2QSpyV93iAIoi0gY_-51" value="+nonagon : int&lt;div&gt;+nonstate : char&lt;br&gt;&lt;div&gt;+row : int&lt;/div&gt;&lt;div&gt;+column : int&lt;/div&gt;&lt;div&gt;&lt;br&gt;&lt;/div&gt;&lt;div&gt;&lt;br&gt;&lt;/div&gt;&lt;/div&gt;" style="text;strokeColor=none;fillColor=none;align=left;verticalAlign=top;spacingLeft=4;spacingRight=4;overflow=hidden;rotatable=0;points=[[0,0.5],[1,0.5]];portConstraint=eastwest;whiteSpace=wrap;html=1;" parent="TLi2QSpyV93iAIoi0gY_-50" vertex="1">
          <mxGeometry y="26" width="160" height="94" as="geometry" />
        </mxCell>
        <mxCell id="TLi2QSpyV93iAIoi0gY_-52" value="" style="line;strokeWidth=1;fillColor=none;align=left;verticalAlign=middle;spacingTop=-1;spacingLeft=3;spacingRight=3;rotatable=0;labelPosition=right;points=[];portConstraint=eastwest;strokeColor=inherit;" parent="TLi2QSpyV93iAIoi0gY_-50" vertex="1">
          <mxGeometry y="120" width="160" height="8" as="geometry" />
        </mxCell>
        <mxCell id="TLi2QSpyV93iAIoi0gY_-53" value="+ method(type): type" style="text;strokeColor=none;fillColor=none;align=left;verticalAlign=top;spacingLeft=4;spacingRight=4;overflow=hidden;rotatable=0;points=[[0,0.5],[1,0.5]];portConstraint=eastwest;whiteSpace=wrap;html=1;" parent="TLi2QSpyV93iAIoi0gY_-50" vertex="1">
          <mxGeometry y="128" width="160" height="26" as="geometry" />
        </mxCell>
        <mxCell id="TLi2QSpyV93iAIoi0gY_-54" value="" style="endArrow=classic;startArrow=classic;html=1;rounded=0;" parent="1" source="TLi2QSpyV93iAIoi0gY_-46" target="TLi2QSpyV93iAIoi0gY_-50" edge="1">
          <mxGeometry width="50" height="50" relative="1" as="geometry">
            <mxPoint x="330" y="520" as="sourcePoint" />
            <mxPoint x="380" y="470" as="targetPoint" />
          </mxGeometry>
        </mxCell>
        <mxCell id="TLi2QSpyV93iAIoi0gY_-55" value="" style="endArrow=classic;html=1;rounded=0;" parent="1" source="TLi2QSpyV93iAIoi0gY_-12" target="TLi2QSpyV93iAIoi0gY_-46" edge="1">
          <mxGeometry width="50" height="50" relative="1" as="geometry">
            <mxPoint x="330" y="520" as="sourcePoint" />
            <mxPoint x="380" y="470" as="targetPoint" />
          </mxGeometry>
        </mxCell>
        <mxCell id="TLi2QSpyV93iAIoi0gY_-56" value="" style="endArrow=classic;startArrow=classic;html=1;rounded=0;exitX=0.338;exitY=-0.006;exitDx=0;exitDy=0;exitPerimeter=0;" parent="1" source="TLi2QSpyV93iAIoi0gY_-50" target="TLi2QSpyV93iAIoi0gY_-25" edge="1">
          <mxGeometry width="50" height="50" relative="1" as="geometry">
            <mxPoint x="330" y="520" as="sourcePoint" />
            <mxPoint x="380" y="470" as="targetPoint" />
          </mxGeometry>
        </mxCell>
        <mxCell id="TLi2QSpyV93iAIoi0gY_-57" value="" style="endArrow=classic;startArrow=classic;html=1;rounded=0;" parent="1" source="TLi2QSpyV93iAIoi0gY_-46" target="TLi2QSpyV93iAIoi0gY_-25" edge="1">
          <mxGeometry width="50" height="50" relative="1" as="geometry">
            <mxPoint x="330" y="520" as="sourcePoint" />
            <mxPoint x="380" y="470" as="targetPoint" />
          </mxGeometry>
        </mxCell>
      </root>
    </mxGraphModel>
  </diagram>
</mxfile>
